<?xml version="1.0" standalone="no"?>
<!DOCTYPE svg PUBLIC "-//W3C//DTD SVG 20010904//EN"
 "http://www.w3.org/TR/2001/REC-SVG-20010904/DTD/svg10.dtd">
<svg version="1.0" xmlns="http://www.w3.org/2000/svg"
 width="700.000000pt" height="700.000000pt" viewBox="0 0 700.000000 700.000000"
 preserveAspectRatio="xMidYMid meet">
<metadata>
Created by potrace 1.14, written by Peter Selinger 2001-2017
</metadata>
<g transform="translate(0.000000,700.000000) scale(0.100000,-0.100000)"
fill="#000000" stroke="none">
<path d="M1120 6119 c-61 -10 -108 -36 -159 -87 -67 -67 -88 -134 -85 -274 2
-140 12 -298 24 -388 6 -41 12 -93 14 -115 5 -51 24 -168 36 -220 5 -22 12
-56 15 -75 50 -287 202 -726 375 -1085 160 -333 415 -737 631 -1000 316 -385
666 -725 1024 -995 55 -41 102 -77 105 -80 3 -3 12 -9 21 -15 9 -5 69 -46 135
-89 183 -121 182 -121 304 -191 503 -289 1090 -499 1620 -580 25 -4 53 -9 62
-10 9 -2 48 -7 85 -10 37 -4 75 -8 83 -10 17 -5 250 -17 360 -20 131 -3 200
22 272 97 85 89 82 62 82 798 l1 645 -28 57 c-42 85 -134 156 -222 171 -16 3
-120 24 -230 46 -110 23 -213 44 -230 47 -16 3 -84 17 -150 31 -153 32 -154
32 -190 38 -16 3 -37 8 -45 10 -8 2 -28 7 -45 10 -16 2 -41 7 -55 11 -55 13
-161 12 -217 -2 -128 -32 -144 -45 -526 -426 -197 -197 -362 -358 -366 -358
-19 0 -154 82 -305 185 -119 82 -133 92 -285 215 -173 138 -236 195 -451 410
-152 152 -233 241 -388 426 -97 115 -352 499 -352 530 0 5 160 171 356 369
196 198 369 380 385 405 39 59 52 109 51 195 0 73 -3 88 -77 485 -25 135 -47
256 -50 270 -69 382 -86 442 -132 489 -41 40 -89 72 -127 83 -44 12 -1258 19
-1326 7z m990 -585 c5 -5 11 -22 14 -39 3 -16 12 -70 21 -120 9 -49 25 -139
36 -200 10 -60 21 -121 24 -135 20 -101 25 -129 28 -156 4 -28 -12 -47 -235
-270 l-240 -239 -40 95 c-67 161 -153 461 -183 640 -3 19 -12 67 -20 105 -28
143 -48 317 -37 323 16 10 622 6 632 -4z m2820 -3295 c25 -6 55 -13 68 -15 12
-2 32 -6 45 -8 156 -29 484 -99 489 -104 8 -8 10 -109 9 -430 l-1 -212 -27 4
c-16 3 -57 7 -93 11 -279 26 -637 115 -923 228 l-129 50 244 244 c133 133 250
243 258 243 8 0 35 -5 60 -11z"/>
<path d="M3725 6118 c-93 -20 -183 -102 -210 -191 -13 -44 -15 -230 -15 -1385
l0 -1335 436 437 c240 240 439 436 443 437 3 0 346 2 761 3 512 2 766 6 788
14 78 26 141 85 177 167 17 37 18 98 20 815 1 802 -1 842 -40 905 -32 51 -97
104 -149 122 -47 16 -135 17 -1113 18 -584 0 -1078 -3 -1098 -7z m1811 -581
c7 -6 6 -858 0 -865 -9 -8 -1426 -8 -1439 0 -9 5 -12 124 -13 437 l0 430 30 3
c47 5 1418 0 1422 -5z"/>
</g>
</svg>
